<svg version="1" xmlns="http://www.w3.org/2000/svg" width="1497.333" height="1497.333" viewBox="0 0 1123.000000 1123.000000"><path d="M455.6 171.2c-18 1.8-35.3 17.4-39.5 35.8-2.4 10.5-.6 23.6 4.7 33.4 8.8 16.4 30 26.9 47.7 23.8 3.3-.5 6.3-.7 6.7-.3.6.5 12.6 33.1 20.8 56.6 1.5 4.4 9.2 25.8 17 47.5 26.2 73.1 32 89.2 32 89.9 0 .4-1.6 1.3-3.5 2-5.1 1.8-14.9 11.3-17.9 17.3-1.4 2.8-2.9 7.3-3.2 10-.8 5.7 1.8 5-27.9 7.3-23.3 1.8-59.6 4.7-86.8 7-25.7 2.2-26.5 2.1-27.3-1.3-2.2-8.9-9-17.4-17.7-21.9-4.6-2.5-6.3-2.8-14.7-2.8-8.3 0-10.1.3-14.5 2.7-6.2 3.2-13 10.4-15.8 16.6-3.2 7.2-3 18.9.4 26.2 3.7 8 8.1 12.5 15.7 16.2 5.9 2.9 7.6 3.3 14.7 3.3 9.3-.1 14.9-2.2 21.4-8 5.1-4.6 7.9-9.1 10.1-16.3l1.8-5.7 64.8-5.1c35.7-2.9 67.1-5.4 69.8-5.6l4.9-.3 1.6 5.1c1 2.8 3 7.2 4.5 9.8l2.8 4.8-4.8 4.8c-2.7 2.7-26 24.9-51.8 49.4l-46.9 44.5-3.1-2.4c-1.8-1.3-5.9-3.7-9.1-5.2-5.4-2.5-7.1-2.8-16.5-2.8-9.7 0-11 .2-17.2 3.2-9.4 4.4-16 10.9-20.6 20.2-3.6 7.2-3.7 7.9-3.7 18 0 9.8.2 11.1 3.2 17.3 9.2 19.4 30.1 29 50.1 22.9 26.3-8 37.8-36.8 24.4-61.4l-2.6-4.8 12-11.3c6.5-6.2 29.9-28.4 51.8-49.3l39.9-38 6.6 3.4c8.1 4.2 15.5 5.4 23.9 4.1 3.5-.5 6.5-.8 6.8-.6.2.3 12.5 33.1 27.3 72.9 14.8 39.8 29 78 31.5 84.8 2.6 6.8 4.5 12.5 4.4 12.6-.2.1-2.3 1.3-4.7 2.5-28 14.1-27 53.8 1.8 67.7 4.9 2.4 6.8 2.7 15.1 2.7 8.2.1 10.3-.3 15-2.5 24.3-11.5 30.1-43.5 11-61.3-6.9-6.4-14.6-9.8-23.6-10.4-5.5-.3-7.4-.9-7.9-2.1-.4-.9-14.8-39.5-32-85.8L577.2 528l6.7-6.7c7.3-7.3 10.4-13.5 11.7-23.1l.6-5 7.7-.6c4.2-.3 20.9-1.5 37.1-2.7 16.2-1.1 53.8-3.8 83.5-5.9 29.7-2.1 54.3-3.6 54.6-3.4.4.2 1 2 1.4 4.1 1.2 6.6 6.8 16.4 12.6 22.2 14.5 14.5 35.2 18.1 53.8 9.3 6.5-3.1 16.2-11.9 19.7-17.8 9.3-15.9 8.8-35.9-1.3-51.1-4.7-7.2-10.3-11.8-19.3-16.2-6.8-3.2-8.5-3.6-17.5-3.9-8.3-.3-11.1 0-16.5 1.8-17 5.7-29.1 19.7-32.1 37.2l-1.1 6.7-5.1.5c-2.9.4-21.6 1.7-41.7 3.1-50.7 3.5-89.8 6.3-114.7 8.1-11.7.8-21.7 1.3-22.3.9-.5-.3-1-1.2-1-1.9s-1.3-3.9-2.9-7l-2.8-5.7 36.6-34.2c20.1-18.9 37.1-34.6 37.7-35 .7-.4 3.8.5 7 2.1 5.2 2.4 7.1 2.7 15.9 2.7 8.2 0 10.9-.5 14.9-2.3 31-14.1 31.3-56 .6-71-4.8-2.3-6.7-2.7-15.5-2.7-9.2 0-10.5.3-16.6 3.2-7.9 3.9-15 11.1-18.7 19.1-2.3 4.9-2.7 7-2.7 15.2 0 10.9 1.7 16.5 7.2 23.7 1.9 2.5 3.1 4.8 2.6 5.2-.6.3-17.3 15.9-37.3 34.6-20 18.7-36.6 33.9-36.9 33.8-.3-.1-2.8-1.5-5.6-3.2-5.7-3.4-14.9-6.1-21.1-6.1-3.6 0-4.3-.4-5.3-2.8-6.8-16.9-68.8-192.8-68.1-193 2.6-.9 12.9-9.3 15.7-12.8 12.9-16.4 13.8-38.9 2.3-56.2-9.9-14.7-26.2-22-45.4-20zm15.4 15.4c19.2 5.7 28.6 26.2 20.5 44.3-11 24.4-45.1 25.5-58 2-3.7-6.9-4.6-18-2.1-25.7 3.3-9.9 11.3-17.4 21.9-20.7 5.7-1.8 11.3-1.8 17.7.1zm227.7 159c9.3 5.8 14 14.9 13 25.5-1.6 18.1-20.9 29.2-37.2 21.5-22.3-10.5-20-42 3.5-49.7 1.4-.5 5.5-.7 9.3-.5 5.3.3 7.7.9 11.4 3.2zm138.2 97.5c5.4 1.6 13 7.6 16.8 13.2 10.5 15.7 4 38.3-13.5 46.9-6.9 3.4-17.8 3.7-25.6.7-16-5.9-24.7-25.1-18.7-41 6.4-16.8 23.5-25.1 41-19.8zm-270.4 26.6c9.7 3.3 17.5 14.3 17.5 24.7 0 8.3-5.5 18-12.3 22-11.5 6.8-23.2 5.4-32.4-3.7-19.8-19.9.6-52.1 27.2-43zm-213.1 16.4c5.5 1.5 12.8 9.1 14.5 15.2 4.8 17.1-10.3 32.9-27.5 28.6-6.8-1.7-14.6-9.5-16.3-16.3-4.4-17.4 11.6-32.4 29.3-27.5zm53 136C417 626 425 637.5 425 648.9c0 7.8-2.7 13.9-8.9 20.2-8.8 8.8-19.1 11.1-30.5 6.9-10.3-3.9-17.5-13.5-18.3-24.5-1.8-21.8 18.6-37.1 39.1-29.4zm251.3 92.6c15.7 7.4 19 28.5 6.5 41.1-5 4.9-10.5 7.2-18 7.2-10.2 0-17.9-4.4-22.5-12.9-8.7-15.8 0-34.6 17.4-38 5.8-1.1 10.3-.5 16.6 2.6z"/></svg>